<svg width="333" height="846" viewBox="0 0 333 846" fill="none" xmlns="http://www.w3.org/2000/svg">
<mask id="mask0_672_1273" style="mask-type:luminance" maskUnits="userSpaceOnUse" x="0" y="0" width="474" height="846">
<path d="M0 0.151611H474V845.073H0V0.151611Z" fill="white"/>
</mask>
<g mask="url(#mask0_672_1273)">
<path d="M221.874 0.428711L221.56 69.0215L199.423 71.6334L177.95 61.4304L136.82 125.35V131.881L155.136 130.887L62.7128 798.064C32.3341 803.573 7.27589 819.672 0 844.837H473.943C471.083 817.74 432.805 796.153 384.583 793.219L325.899 493.74L327.541 493.784C326.368 489.066 325.187 484.339 324.013 479.613L323.239 479.592L259.418 140.695L276.537 139.827V117.066H261.374L239.249 57.6369L227.879 55.7422V0.742459L221.874 0.428711ZM224.591 74.2126L219.214 88.4821L205.057 89.9612L198.877 77.6598L224.591 74.2126ZM234.287 74.9868L248.105 117.701L219.556 118.83L219.401 118.525L234.287 74.9868ZM186.676 79.3019L192.823 91.2447L175.782 93.0294L184.578 79.583L186.676 79.3019ZM216.264 96.3503L212.581 104.944L208.626 97.0756L216.264 96.3503ZM196.412 98.2287L206.801 118.439L206.711 118.647L157.226 120.994L171.065 100.629L196.412 98.2287ZM195.088 128.251L195.211 140.87L166.531 142.117L167.83 129.807L195.088 128.251ZM248.549 141.245L250.46 152.845L249.776 152.821L248.549 141.245ZM227.353 142.316L228.425 152.263L225.117 152.177L224.734 142.443L227.353 142.316ZM215.376 142.915L224.343 791.992C221.642 791.781 218.953 791.601 216.276 791.471L208.361 143.38L215.376 142.915ZM232.89 145.303H243.75L244.549 152.691L233.651 152.401L232.89 145.303ZM195.198 150.845L195.149 170.917L177.664 195.002L162.815 171.304L165.154 152.89L195.198 150.845ZM226.73 158.126L229.064 158.187L229.28 160.216L226.73 158.126ZM234.287 158.33L245.188 158.627L245.681 163.236H234.816L234.287 158.33ZM250.415 158.762L251.43 158.798L251.499 159.271L250.533 159.927L250.415 158.762ZM225.544 163.134L229.981 166.707L230.706 173.451L226.074 176.605L225.544 163.134ZM252.143 163.207L255.092 181.384L252.64 179.376L250.981 164.026L252.143 163.207ZM237.994 167.363H239.632L238.74 167.975L237.994 167.363ZM246.142 167.429L246.924 174.686L241.795 170.485L246.142 167.429ZM237.986 173.162L247.596 180.904L248.069 185.3H237.187L236.03 174.543L237.986 173.162ZM231.191 177.945L233.826 202.442L227.084 202.267L226.265 181.409L231.191 177.945ZM161.349 182.823L172.552 202.047L156.004 224.832L161.349 182.823ZM253.299 185.508L256.135 187.79L258.62 203.102L255.19 203.013L253.299 185.508ZM195.113 186.364L195.023 222.738L182.781 203.184L195.113 186.364ZM237.631 189.436H248.513L249.967 202.866L239.049 202.581L237.631 189.436ZM228.759 208.99L234.543 209.149L235.318 216.349L228.759 208.99ZM255.915 209.732L259.716 209.838L261.072 218.195L257.219 221.785L255.915 209.732ZM177.461 210.457L194.974 240.508L194.925 259.989L151.356 261.35L153.706 242.875L177.461 210.457ZM240.002 211.5H250.904L252.489 226.206L249.018 229.433H246.985L241.245 222.999L240.002 211.5ZM227.646 216.72L236.393 226.364L237.843 239.852L228.885 248.205L227.646 216.72ZM261.985 223.83L266.429 251.24L259.569 243.547L257.866 227.791L261.985 223.83ZM242.386 233.568H242.927L243.685 234.4L242.581 235.435L242.386 233.568ZM251.857 233.568H253.279L253.638 236.902L251.214 234.184L251.857 233.568ZM247.095 238.152L254.681 246.506L255.222 251.501H244.309L243.266 241.82L247.095 238.152ZM238.54 246.367L239.848 258.497L229.28 258.212L229.166 255.396L238.54 246.367ZM260.592 253.025L266.189 259.186L261.239 259.051L260.592 253.025ZM244.748 255.625H255.666L256.021 258.921L245.07 258.632L244.748 255.625ZM233.179 266.704L240.752 266.911L241.766 276.332L233.179 266.704ZM245.979 267.054L256.929 267.351L257.597 273.561H246.679L245.979 267.054ZM262.152 267.486L269.102 267.682L269.64 270.99L263.183 277.008L262.152 267.486ZM194.905 269.886L194.864 284.412L169.036 313.819L148.174 286.303L149.979 272.147L194.905 269.886ZM229.907 274.266L243.111 288.809L243.783 295.1L232.103 305.987L231.113 305.185L229.907 274.266ZM247.119 277.689H258.046L258.453 281.429L251.817 287.611L247.69 282.974L247.119 277.689ZM270.784 278.052L276.899 315.73L266.055 303.567L264.001 284.579L270.784 278.052ZM259.284 289.114L259.989 295.63H258.982L255.992 292.284L259.284 289.114ZM146.638 298.384L162.648 321.08L140.552 346.229L146.638 298.384ZM249.495 299.761H253.043L261.431 309.003L262.364 317.702H251.43L249.495 299.761ZM194.824 300.963L194.709 347.692L175.432 322.266L194.824 300.963ZM244.647 303.188L246.187 317.449L237.322 310.237L244.647 303.188ZM267.342 315.518L273.172 321.944L268.022 321.809L267.342 315.518ZM231.557 316.419L236.69 320.982L231.733 320.856L231.557 316.419ZM232.063 329.241L246.411 329.633L247.612 330.7L249.075 344.306L232.107 330.382L232.063 329.241ZM168.783 329.775L194.661 366.468L194.632 379.111L136.18 380.546L138.262 364.186L168.783 329.775ZM261.671 330.048L263.712 330.109L263.896 331.861L261.671 330.048ZM268.935 330.248L279.303 330.533L280.256 336.372L274.373 340.386L269.607 336.511L268.935 330.248ZM253.369 335.818L257.805 339.762H253.792L253.369 335.818ZM232.523 341.119L250.269 355.417L250.407 356.729L233.586 368.199L232.523 341.119ZM281.36 343.169L281.894 346.506L279.449 344.517L281.36 343.169ZM254.236 343.894H262.449L265.395 346.51L257.952 351.591L254.786 348.991L254.236 343.894ZM271.253 351.721L284.68 363.664L285.784 370.453L280.79 370.318L272.528 363.546L271.253 351.721ZM266.267 353.791L266.812 358.856L263.236 355.922L266.267 353.791ZM256.648 360.555L258.229 361.831H256.159L256.074 360.963L256.648 360.555ZM251.226 364.373L251.788 369.556L244.133 369.357L251.226 364.373ZM256.607 365.95H263.35L267.982 369.695L268.018 369.988L257.011 369.699L256.607 365.95ZM234.018 379.176L252.884 379.694L255.907 407.911L234.205 384.033L234.018 379.176ZM258.103 379.841L269.114 380.134L269.517 383.895H258.543L258.103 379.841ZM274.337 380.281L281.356 380.476L288.318 386.083L290.424 399.081L277.628 410.779L274.337 380.281ZM258.987 388.023H269.961L271.897 405.955H260.913L258.987 388.023ZM194.604 388.968L194.583 399.179L160.404 432.62L133.443 402.043L134.804 391.356L194.604 388.968ZM234.902 401.685L257.919 426.552L258.135 428.61L252.318 433.928L235.717 422.506L234.902 401.685ZM292.176 409.834L299.676 456.041L280.207 434.637L278.879 422.376L292.176 409.834ZM261.358 410.083H272.349L272.887 415.115L267.199 420.318L261.822 414.41L261.358 410.083ZM131.846 414.646L152.749 440.125L125.173 467.104L131.846 414.646ZM194.538 416.468L194.4 471.174L168.095 441.344L194.538 416.468ZM274.158 426.834L274.284 428.028H274.194L273.599 427.363L274.158 426.834ZM236.185 434.498L244.801 440.798L236.719 448.185L236.185 434.498ZM265.619 434.893L276.264 446.396L276.663 450.088H275.812L264.849 442.546L264.173 436.25L265.619 434.893ZM252.994 446.791L260.698 452.427L263.447 478.024L237.868 477.347L237.257 461.648L252.994 446.791ZM160.106 449.085L194.351 490.826L194.331 498.234L121.005 499.737L122.859 485.195L160.106 449.085ZM282.163 452.765L286.469 457.414L282.366 454.59L282.163 452.765ZM266.352 456.562L278.309 465.311L279.046 472.152H268.035L266.352 456.562ZM283.963 469.451L296.89 478.904L284.949 478.59L283.963 469.451ZM268.47 476.28H279.494L279.727 478.451L268.674 478.166L268.47 476.28ZM238.422 491.36L264.955 492.081L269.257 532.029L238.96 505.197L238.422 491.36ZM270.186 492.224L281.246 492.529L281.429 494.22H270.401L270.186 492.224ZM286.473 492.668L305.705 493.194L309.307 515.368L290.424 529.275L286.473 492.668ZM270.846 498.348H281.873L283.817 516.289H272.772L270.846 498.348ZM194.31 508.078L194.294 514.687L151.791 551.433L118.671 518.245L119.649 510.548L194.31 508.078ZM273.221 520.416H284.257L285.601 532.824L278.097 538.345H276.386L275.017 537.131L273.221 520.416ZM239.607 521.728L267.595 546.091L259.793 551.836L240.332 540.182L239.607 521.728ZM310.989 525.701L319.194 576.276L292.991 553.062L291.63 540.411L310.989 525.701ZM116.993 531.324L142.845 559.158L109.823 587.713L116.993 531.324ZM194.249 532.408L194.098 593.829L160.75 560.421L194.249 532.408ZM286.815 544.07L287.235 547.969L284.68 545.696L286.815 544.07ZM240.838 553.054L250.212 558.885L241.322 565.445L240.838 553.054ZM276.842 554.146L284.049 560.421H277.514L276.842 554.146ZM271.774 555.499L272.182 559.252L269.196 557.463L271.774 555.499ZM281.03 564.549H288.795L289.047 564.777L289.581 569.663L281.03 564.549ZM259.61 564.74L273.714 573.517L277.347 607.276L242.927 606.371L241.819 578.256L259.61 564.74ZM151.429 568.404L194.045 614.297L194.037 617.373L105.859 618.909L107.501 606.041L151.429 568.404ZM294.8 569.773L305.905 579.442L295.15 573.004L294.8 569.773ZM279.295 576.993L288.11 582.477H279.894L279.295 576.993ZM280.333 586.613H291.41L293.341 604.546H282.265L280.333 586.613ZM296.751 587.856L323.806 604.697L324.425 608.523L298.914 607.846L296.751 587.856ZM250.46 622.588L279.075 623.375L281.751 648.255L250.46 622.588ZM284.301 623.509L295.427 623.815L295.729 626.61H284.635L284.301 623.509ZM300.65 623.958L327.048 624.675L328.466 633.374L303.506 650.394L300.65 623.958ZM194.013 627.205L194.005 630.636L143.155 670.242L103.838 634.735L104.478 629.727L194.013 627.205ZM285.075 630.742H296.177L298.112 648.678H287.006L285.075 630.742ZM244.027 634.372L282.061 665.018L271.526 672.206L244.96 658.054L244.027 634.372ZM330.267 644.494L338.422 694.742L305.371 667.63L304.805 662.41L330.267 644.494ZM102.115 648.283L132.946 678.199L94.4928 708.152L102.115 648.283ZM193.96 648.605L193.793 715.967L153.401 679.495L193.96 648.605ZM287.455 652.806H298.552L298.658 653.703L293.048 657.529L287.463 652.945L287.455 652.806ZM245.498 671.888L260.258 679.89L246.187 689.494L245.498 671.888ZM289.817 674.874H294.282L301.575 680.75L302.422 688.659L290.628 682.384L289.817 674.874ZM284.782 676.492L285.1 679.434L282.533 678.069L284.782 676.492ZM307.282 685.35L328.841 702.725L307.958 691.601L307.282 685.35ZM271.367 685.925L286.697 694.237L289.597 721.216L247.388 720.107L246.728 703.259L271.367 685.925ZM142.752 687.722L193.051 736.524L90.6879 738.085L92.1219 726.794L142.752 687.722ZM292.229 697.236L304.051 703.646L305.261 714.875H294.119L292.229 697.236ZM309.58 706.657L338.818 722.515L311.217 721.786L309.58 706.657ZM294.563 719.007H305.705L305.987 721.652L294.816 721.358L294.563 719.007ZM261.358 738.525L291.545 739.344L294.368 765.601L261.358 738.525ZM313.177 739.939L345.902 740.827L347.145 748.499L316.371 769.492L313.177 739.939ZM296.939 741.071H308.093L310.024 759.012H298.865L296.939 741.071ZM193.715 746.336V746.882L134.531 789.055L88.985 751.441L89.3068 748.907L193.715 746.336ZM248.452 747.244L294.535 784.385L283.075 792.192L249.584 776.085L248.452 747.244ZM349.186 761.045L354.783 795.521C349.027 797.049 343.397 799.115 337.925 801.331L318.045 785.025L317.845 783.106L349.186 761.045ZM299.309 763.132H310.472L311.515 772.805L306.948 775.918L300.084 770.291L299.309 763.132ZM193.671 764.961L193.605 791.397C177.306 792.147 161.715 794.739 147.31 799.608L146.055 798.573L193.671 764.961ZM87.2047 765.442L123.038 797.245L120.142 799.856C108.059 796.976 95.6906 795.721 83.6727 795.986L87.2047 765.442ZM250.163 790.904L264.417 797.766C259.716 796.817 255.019 795.92 250.33 795.158L250.163 790.904ZM304.54 792.453L314.509 800.48L314.79 803.137H305.815L303.489 802.02L302.613 793.814L304.54 792.453ZM297.766 797.224L298.002 799.376L296.038 798.43L297.766 797.224Z" fill="#F9DAD1"/>
</g>
</svg>
