<svg width="18" height="18" viewBox="0 0 18 18" fill="none" xmlns="http://www.w3.org/2000/svg">
<path d="M7.93533 0.434967L0.435333 7.93497C0.298772 8.07762 0.191724 8.24584 0.120333 8.42997C-0.0296943 8.79516 -0.0296943 9.20477 0.120333 9.56997C0.191724 9.75409 0.298772 9.92231 0.435333 10.065L7.93533 17.565C8.07519 17.7048 8.24123 17.8158 8.42396 17.8915C8.60669 17.9671 8.80254 18.0061 9.00033 18.0061C9.39979 18.0061 9.78288 17.8474 10.0653 17.565C10.3478 17.2825 10.5065 16.8994 10.5065 16.5C10.5065 16.1005 10.3478 15.7174 10.0653 15.435L5.11533 10.5H16.5003C16.8982 10.5 17.2797 10.3419 17.561 10.0606C17.8423 9.77932 18.0003 9.39779 18.0003 8.99996C18.0003 8.60214 17.8423 8.22061 17.561 7.93931C17.2797 7.658 16.8982 7.49996 16.5003 7.49996L5.11533 7.49996L10.0653 2.56496C10.2059 2.42552 10.3175 2.25962 10.3937 2.07683C10.4698 1.89404 10.509 1.69798 10.509 1.49997C10.509 1.30195 10.4698 1.10589 10.3937 0.9231C10.3175 0.740311 10.2059 0.574411 10.0653 0.434967C9.92589 0.294374 9.75999 0.182779 9.5772 0.106627C9.39441 0.0304737 9.19835 -0.00873184 9.00033 -0.00873184C8.80232 -0.00873184 8.60626 0.0304737 8.42347 0.106627C8.24068 0.182779 8.07478 0.294374 7.93533 0.434967Z" fill="white"/>
</svg>
