<svg width="52" height="93" viewBox="0 0 52 93" fill="none" xmlns="http://www.w3.org/2000/svg">
<path d="M32.5752 0.414861C31.3837 0.439404 30.2326 0.866693 29.3444 1.90313C25.7933 6.04928 26.6342 9.15538 27.1985 10.5246C30.5394 0.211676 34.0001 9.47242 38.3519 5.47997C40.085 3.8899 36.1496 0.340829 32.5752 0.414458V0.414861ZM15.8438 10.5C11.8215 10.5473 9.09785 15.815 10.7521 17.2383C15.2286 21.0883 17.2847 11.9967 22.5979 16.272C21.3482 13.5486 19.866 10.4529 15.8438 10.5ZM34.7201 12.3039C32.1926 12.3679 30.3507 14.213 28.7188 15.8912C35.1562 13.6401 34.0518 22.896 39.5585 20.7656C41.594 19.9782 40.7897 14.1028 37.0151 12.7123C36.1895 12.4081 35.4278 12.2858 34.7201 12.3039ZM23.6895 18.3457V24.7832H17.5779L16.2904 31.2207H14.0332V34.8418H15.5661L12.4647 50.3501L12.144 50.5332H9.40625V54.1543H11.704L4.70325 89.1582H-0.25V92.7793H51.25V89.1582H46.2971L39.296 54.1543H41.5938V50.5332H38.8558L38.5353 50.3501L35.4337 34.8418H36.9668V31.2207H34.7096L33.4221 24.7832H27.3105V18.3457H23.6895ZM20.5471 28.4043H23.6895V31.2207H19.9839L20.5471 28.4043ZM27.3105 28.4043H30.4529L31.0161 31.2207H27.3105V28.4043ZM19.2596 34.8418H23.6895V41.8667L18.4529 38.8743L19.2596 34.8418ZM27.3105 34.8418H31.7403L32.5471 38.8743L27.3105 41.8667V34.8418ZM17.7042 42.6171L21.8503 44.9865L16.6344 47.9679L17.7042 42.6171ZM33.2958 42.6171L34.3656 47.9677L29.1493 44.9863L33.2958 42.6171ZM23.6895 48.1069V50.5334H19.4427L23.6895 48.1067V48.1069ZM27.3105 48.1069L31.5573 50.5334H27.3105V48.1069ZM15.3971 54.1545H23.6895V63.7798L14.1107 60.5872L15.3971 54.1545ZM27.3105 54.1545H35.6029L36.8918 60.5976L27.3105 63.9117V54.1545ZM13.3951 64.1652L20.1102 66.4035L12.4148 69.0658L13.3951 64.1652ZM37.6081 64.1813L38.5164 68.7218L31.3698 66.3399L37.6081 64.1813ZM27.3105 68.8032L37.0754 72.0582L27.3105 77.3842V68.8032ZM23.6895 68.997V77.3842L14.2806 72.2519L23.6895 68.9974V68.997ZM11.2796 74.7404L21.719 80.434L8.72327 87.5227L11.2798 74.7402L11.2796 74.7404ZM39.7202 74.7404L42.2767 87.5229L29.2814 80.434L39.7202 74.7404ZM23.6895 83.4844V89.158H13.2879L23.6895 83.4844ZM27.3105 83.4844L37.7121 89.158H27.3105V83.4844Z" fill="#E75C33"/>
</svg>
