<svg width="22" height="19" viewBox="0 0 22 19" fill="none" xmlns="http://www.w3.org/2000/svg">
<path d="M21.7922 16.6446L12.5308 0.840394C11.8744 -0.280131 10.1256 -0.280131 9.46866 0.840394L0.207817 16.6446C0.0652869 16.8879 -0.00617123 17.1609 0.000417719 17.4371C0.00700667 17.7133 0.0914177 17.9832 0.245412 18.2205C0.399405 18.4578 0.61772 18.6544 0.879047 18.791C1.14037 18.9276 1.43578 18.9996 1.73644 19H20.2608C20.5617 19 20.8575 18.9283 21.1192 18.7919C21.3809 18.6555 21.5996 18.459 21.7539 18.2216C21.9082 17.9842 21.9929 17.7142 21.9996 17.4377C22.0063 17.1613 21.9348 16.888 21.7922 16.6446ZM11 16.5532C10.785 16.5532 10.5749 16.4946 10.3962 16.3849C10.2175 16.2752 10.0782 16.1192 9.9959 15.9367C9.91365 15.7542 9.89212 15.5534 9.93406 15.3597C9.97599 15.166 10.0795 14.988 10.2315 14.8484C10.3835 14.7087 10.5771 14.6136 10.788 14.575C10.9988 14.5365 11.2173 14.5563 11.4159 14.6319C11.6145 14.7075 11.7842 14.8355 11.9037 14.9997C12.0231 15.1639 12.0868 15.357 12.0868 15.5545C12.0868 15.8194 11.9723 16.0734 11.7685 16.2607C11.5647 16.448 11.2882 16.5532 11 16.5532ZM12.1803 6.50894L11.8684 12.6009C11.8684 12.8128 11.7768 13.016 11.6137 13.1659C11.4507 13.3157 11.2295 13.3999 10.9989 13.3999C10.7683 13.3999 10.5472 13.3157 10.3841 13.1659C10.2211 13.016 10.1295 12.8128 10.1295 12.6009L9.81753 6.51143C9.81052 6.36592 9.83547 6.2206 9.89088 6.08413C9.94629 5.94766 10.031 5.82285 10.1401 5.71712C10.2491 5.61139 10.3802 5.52691 10.5255 5.46872C10.6708 5.41053 10.8274 5.37982 10.9859 5.37842H10.9973C11.1569 5.37835 11.3148 5.40798 11.4616 5.46554C11.6084 5.5231 11.7409 5.60739 11.8513 5.71332C11.9616 5.81925 12.0475 5.94462 12.1037 6.08188C12.1598 6.21914 12.1852 6.36543 12.1781 6.51193L12.1803 6.50894Z" fill="#FF0000"/>
</svg>
