<svg width="44" height="38" viewBox="0 0 44 38" fill="none" xmlns="http://www.w3.org/2000/svg">
<path d="M0 38L22 0L44 38H0ZM6.9 34H37.1L22 8L6.9 34ZM22 32C22.5667 32 23.042 31.808 23.426 31.424C23.81 31.04 24.0013 30.5653 24 30C23.9987 29.4347 23.8067 28.96 23.424 28.576C23.0413 28.192 22.5667 28 22 28C21.4333 28 20.9587 28.192 20.576 28.576C20.1933 28.96 20.0013 29.4347 20 30C19.9987 30.5653 20.1907 31.0407 20.576 31.426C20.9613 31.8113 21.436 32.0027 22 32ZM20 26H24V16H20V26Z" fill="#FFC107"/>
</svg>
