<svg width="31" height="31" viewBox="0 0 31 31" fill="none" xmlns="http://www.w3.org/2000/svg">
<path d="M27.1899 24.163L16.8709 4.99996C16.1395 3.64129 14.1911 3.64129 13.4591 4.99996L3.14073 24.163C2.98192 24.458 2.9023 24.7891 2.90965 25.124C2.91699 25.4589 3.01104 25.7862 3.18262 26.0739C3.3542 26.3616 3.59744 26.5999 3.88861 26.7656C4.17978 26.9312 4.50892 27.0186 4.84391 27.019H25.4837C25.819 27.0191 26.1485 26.9321 26.4401 26.7667C26.7317 26.6013 26.9753 26.363 27.1473 26.0752C27.3192 25.7874 27.4135 25.4599 27.421 25.1248C27.4285 24.7896 27.3489 24.4582 27.1899 24.163ZM15.1653 24.0522C14.9258 24.0522 14.6917 23.9812 14.4926 23.8482C14.2934 23.7151 14.1382 23.526 14.0466 23.3047C13.9549 23.0834 13.9309 22.84 13.9777 22.6051C14.0244 22.3702 14.1397 22.1544 14.3091 21.985C14.4784 21.8157 14.6942 21.7004 14.9291 21.6536C15.164 21.6069 15.4075 21.6309 15.6287 21.7225C15.85 21.8142 16.0391 21.9694 16.1722 22.1685C16.3053 22.3677 16.3763 22.6018 16.3763 22.8413C16.3763 23.1625 16.2487 23.4705 16.0216 23.6976C15.7945 23.9247 15.4865 24.0522 15.1653 24.0522ZM16.4804 11.8732L16.1329 19.26C16.1329 19.5169 16.0308 19.7633 15.8491 19.945C15.6675 20.1266 15.4211 20.2287 15.1641 20.2287C14.9072 20.2287 14.6608 20.1266 14.4791 19.945C14.2974 19.7633 14.1954 19.5169 14.1954 19.26L13.8478 11.8763C13.84 11.6998 13.8678 11.5236 13.9296 11.3582C13.9913 11.1927 14.0857 11.0413 14.2072 10.9131C14.3287 10.7849 14.4747 10.6825 14.6366 10.6119C14.7985 10.5414 14.973 10.5042 15.1496 10.5025H15.1623C15.3401 10.5024 15.5161 10.5383 15.6796 10.6081C15.8432 10.6779 15.9909 10.7801 16.1138 10.9085C16.2368 11.037 16.3325 11.189 16.395 11.3554C16.4576 11.5219 16.4858 11.6992 16.478 11.8769L16.4804 11.8732Z" fill="white"/>
</svg>
